# xmcd
#
# Track frame offsets:
#	150
#	18872
#	30047
#	48507
#	65442
#	82332
#	102027
#	124155
#	141102
#	174520
#	194082
#	209192
#	226292
#	245152
#	258002
#	273555
#	297077
#	313820
#
# Disc length: 4300
#
# Revision: 1
# Processed by: cddbd v1.5.1PL0 Copyright (c) Steve Scherf et al.
# Submitted via: FreeRIP 2.30 
# Normalized: r0:TDELIM( - )
#
DISCID=0c10ca12
DTITLE=Red Lighnin' - The MAssive Sounds of Red Lighnin' Vol 2
DYEAR=1997
DGENRE=Blues
TTITLE0=First Rule Of Cheating - Roy Gaines and Crusaders
TTITLE1=Ho Ho - Ike Turner
TTITLE2=Come on In This House - Byther Smith
TTITLE3=I Got My Mojo Working - Muddy Waters
TTITLE4=Take My Love - Lacy Gibson
TTITLE5=You Don't Know What Love Is - Fenton Robinson
TTITLE6=Lonsome for a Dime - Buster Benson and Carey Bell
TTITLE7=Goin' Mad Blues - John Lee Hooker
TTITLE8=Alibi Blues - U.P. Wilson
TTITLE9=You Got to Give me Some - Carey Bell and Willy Williams
TTITLE10=Down at the Corner Grocery Store - Jimmy Reid
TTITLE11=Wish Me Well - Matt(Blues Brother) Guitar Murphy and Memphis Slim
TTITLE12=Still a Fool - Clarence Edwards
TTITLE13=This is All - Screamin' Jay Hawkins
TTITLE14=I Had It So Hard - Sunnyland Slim
TTITLE15=Somebody Help Me - Billy Boy Arnold
TTITLE16=Chinese White Boy - Peter Green and Mick Green
TTITLE17=The Foxtrot - Earl Hooker
EXTD=
EXTT0=
EXTT1=
EXTT2=
EXTT3=
EXTT4=
EXTT5=
EXTT6=
EXTT7=
EXTT8=
EXTT9=
EXTT10=
EXTT11=
EXTT12=
EXTT13=
EXTT14=
EXTT15=
EXTT16=
EXTT17=
PLAYORDER=
